<svg width="115.68mm" height="57.889mm" version="1.1" viewBox="0 0 115.68 57.889" xmlns="http://www.w3.org/2000/svg" xmlns:xlink="http://www.w3.org/1999/xlink">
 <g transform="translate(-215.38 -216.33)">
  <g transform="matrix(.22643 0 0 .22643 108.84 296.28)">
   <path d="m601.96-144.27c-1.8034-2e-3 -3.607-4.1e-4 -5.4102 0.0156-1.3778-0.0486-2.5331 0.83022-3.3457 1.8633-1.6589 1.8059-3.3178 3.612-4.9766 5.418 2.7565-0.0312 5.5177 0.0622 8.2715-0.0449 1.6562-0.1493 2.7881-1.5328 4.127-2.3594 2.248-1.6304 4.4956-3.261 6.7441-4.8906-1.8033 5e-3 -3.6067 2.3e-4 -5.4102-2e-3zm-6.9277 8.2051c-0.18592 2e-3 -0.37104 5e-3 -0.55664 0.0117-0.18688 4e-3 -0.37367 8e-3 -0.56055 0.0117-5.8736 0.18268-11.766 2.9744-15.137 7.875-3.6691 5.199-4.3515 12.174-2.3789 18.152 1.5488 4.5881 4.9517 8.5375 9.3633 10.58 4.5291 2.1978 9.8469 2.5231 14.707 1.3613 4.922-1.2223 9.3662-4.4691 11.732-8.9941 3.7394-6.8849 3.1112-16.021-1.8652-22.139-3.6631-4.5322-9.5408-6.9081-15.305-6.8594zm364.81 0c-0.18592 2e-3 -0.37103 5e-3 -0.55664 0.0117-0.1869 4e-3 -0.37367 8e-3 -0.56054 0.0117-5.8741 0.18176-11.766 2.9744-15.137 7.875-3.6686 5.1993-4.3525 12.174-2.3789 18.152 1.5488 4.5881 4.9517 8.5375 9.3633 10.58 4.5289 2.1979 9.847 2.5234 14.707 1.3613 4.922-1.222 9.366-4.4692 11.732-8.9941 3.7393-6.8848 3.1115-16.021-1.8652-22.139-3.6631-4.5324-9.5408-6.9079-15.305-6.8594zm-103.59 4e-3c-0.27638-1e-3 -0.55304 3e-3 -0.82812 0.0117-4.3243 0.10652-8.7845 2.2074-10.957 6.0684-1.726 2.98-1.8429 6.7278-0.6875 9.9277 0.94687 2.5398 3.0804 4.4952 5.5762 5.4785 2.656 1.2549 5.6602 1.552 8.2734 2.9023 1.0627 0.54706 1.915 1.6385 1.75 2.8887 0.0513 1.3905-0.73695 2.8403-2.1445 3.2129-2.2929 0.71844-4.8277 0.24167-6.8691-0.9707-1.3943-0.69495-2.7097-2.089-4.4063-1.7148-1.4886 0.24417-2.0558 1.7825-2.8066 2.8809-0.56319 0.88994-1.1269 1.7795-1.6894 2.6699 3.2765 3.2494 7.8691 4.9687 12.428 5.2656 4.0622 0.22831 8.401-0.92783 11.254-3.9609 2.9967-3.1357 4.0228-7.9198 2.873-12.062-0.85585-2.8359-3.1881-5.017-5.8887-6.1133-2.6863-1.2856-5.6855-1.7512-8.3418-3.0996-0.97973-0.51116-1.9199-1.4567-1.709-2.6582 5e-3 -1.5873 1.4582-2.7541 2.9609-2.8652 2.279-0.40605 4.5348 0.44274 6.4551 1.6152 1.0898 0.76926 2.7932 1.0143 3.7441-0.10547 0.96539-1.152 1.4737-2.612 2.2461-3.8926 0.10764-0.48086 0.98187-1.1043 0.30078-1.4395-3.1376-2.7801-7.3875-4.0176-11.533-4.0391zm-138.08 0.39062c-1.049 2e-3 -2.0961 0.0199-3.1426 0.0781-1.4171 0.13525-2.0022 1.588-2.543 2.6934-3.1939 6.3321-6.4643 12.627-9.6094 18.982-0.23395 0.48683-0.44874 0.98295-0.66797 1.4766-1.7364-3.8868-3.8042-7.6161-5.6875-11.434-1.8019-3.5105-3.5406-7.0579-5.3809-10.547-0.53406-0.93908-1.6328-1.3038-2.6641-1.2363-2.4881-0.0113-4.9767 9e-5 -7.4648-4e-3v37.838h8.5801c-9e-3 -7.5006 0.0183-15.002-0.0137-22.502 2.9499 5.6652 5.8401 11.363 8.8262 17.008 0.78402 1.3552 2.4459 1.8524 3.9297 1.707 1.6039 0.16547 3.2906-0.66111 3.9551-2.166 2.8526-5.5355 5.706-11.072 8.5586-16.607-0.0228 7.5201-3e-3 15.04-0.01 22.561h8.5781v-37.838c-1.7472 0.026-3.4959-0.0139-5.2441-0.01zm-187.11 8e-3c-2.3231 4e-3 -4.6458 0.0133-6.9688 4e-3v37.838h9.5918v-13.607c1.1552 0.0951 2.6725-0.3478 3.4688 0.75977 2.245 3.7772 4.3292 7.6537 6.5977 11.416 0.93872 1.2911 2.6511 1.5308 4.1367 1.4316h7.7676c-2.8881-4.6925-5.7217-9.4207-8.6426-14.092-0.50221-0.69646-1.1476-1.2784-1.8555-1.7598 3.4724-1.5717 6.1509-4.9043 6.625-8.7246 0.49461-3.4982-0.38773-7.4296-3.1797-9.7852-2.8964-2.501-6.8494-3.287-10.572-3.4473-2.3225-0.0348-4.6456-0.0368-6.9688-0.0332zm-60.57 4e-3v7.8223h10.35v30.016h9.5918v-30.016h10.35v-7.8223zm175.09 0v0.5293c-0.0161 8.2082 0.0333 16.417-0.0234 24.625-0.11703 1.6968-0.35499 3.7994-1.9863 4.7363-1.492 0.73864-3.2144 0.46109-4.7871 0.20312-1.1808-0.1389-2.4525 0.68007-2.4902 1.9395-0.16552 1.8125-0.32958 3.6251-0.49609 5.4375 3.609 0.84241 7.478 1.176 11.074 0.09961 3.4026-1.0204 6.1426-3.7908 7.2676-7.1426 1.1166-2.9852 1.0716-6.2118 1.0332-9.3496v-21.078zm104.43 0v37.838h9.6406v-37.838zm47.658 0c-0.0436 0.11263-0.0872 0.22526-0.13086 0.33789-4.8374 12.5-9.6786 24.999-14.514 37.5 2.6789-0.03051 5.3636 0.06001 8.0391-0.04297 1.5427-0.18415 2.661-1.5525 2.9629-3.0137 0.58732-1.7334 1.1744-3.4658 1.7617-5.1992 4.4076 0 8.8151-3e-5 13.223 0 0.7678 2.1716 1.4242 4.3879 2.2578 6.5332 0.63491 1.2967 2.1487 1.8441 3.5215 1.7227h6.9844c-4.8787-12.614-9.7634-25.225-14.645-37.838zm92.295 0v7.8223h10.35v30.016h9.5918v-30.016h10.35v-7.8223zm-356.28 7.4434h2.8906c1.9276 0.0304 4.0359 0.28564 5.2012 1.9707 1.0408 1.5903 0.93142 3.7559 0.12304 5.4219-1.0364 1.9156-3.3934 2.525-5.4277 2.4551h-2.7871zm61.002 0.25c0.0996-5.3e-4 0.19938 2e-3 0.29883 4e-3 2.9609-0.072 6.053 1.143 7.7559 3.6504 1.9809 2.8742 2.3071 6.4773 1.918 9.8926-0.25262 2.0024-0.91979 3.9752-2.125 5.5273-1.7087 2.319-4.6449 3.3925-7.457 3.3457-2.1384 8e-3 -4.2155-0.40555-5.9883-1.6758-2.8846-2.061-3.9428-5.7861-3.9688-9.1816-0.0718-2.5543 0.43892-5.3128 1.7363-7.4394 1.599-2.7427 4.742-4.1089 7.8301-4.123zm364.81 0c0.0996-5.3e-4 0.19937 2e-3 0.29883 4e-3 2.9609-0.0708 6.0528 1.1411 7.7559 3.6504 2.0204 2.9306 2.3184 6.618 1.8945 10.094-0.27707 1.9339-0.93457 3.8252-2.1016 5.3262-1.7089 2.3201-4.6448 3.3917-7.457 3.3457-2.1384 8e-3 -4.2155-0.40555-5.9883-1.6758-2.8845-2.061-3.9428-5.7861-3.9688-9.1816-0.0718-2.5543 0.43895-5.3128 1.7363-7.4394 1.599-2.7427 4.742-4.1089 7.8301-4.123zm-157.11 2.3652c0.11326-2e-3 0.21352 0.73603 0.36328 1.0293 1.3552 3.8619 2.6216 7.7547 3.9355 11.631h-8.5723c1.3526-4.0345 2.7249-8.0641 4.1055-12.088 0.063-0.41805 0.11648-0.57128 0.16797-0.57226z" fill="#fff" stroke-width="1.1685" xlink:href="#a"/>
   <path id="a" d="m601.96-144.27c-1.8034-2e-3 -3.607-4.1e-4 -5.4102 0.0156-1.3778-0.0486-2.5331 0.83022-3.3457 1.8633-1.6589 1.8059-3.3178 3.612-4.9766 5.418 2.7565-0.0312 5.5177 0.0622 8.2715-0.0449 1.6562-0.1493 2.7881-1.5328 4.127-2.3594 2.248-1.6304 4.4956-3.261 6.7441-4.8906-1.8033 5e-3 -3.6067 2.3e-4 -5.4102-2e-3zm-6.9277 8.2051c-0.18592 2e-3 -0.37104 5e-3 -0.55664 0.0117-0.18688 4e-3 -0.37367 8e-3 -0.56055 0.0117-5.8736 0.18268-11.766 2.9744-15.137 7.875-3.6691 5.199-4.3515 12.174-2.3789 18.152 1.5488 4.5881 4.9517 8.5375 9.3633 10.58 4.5291 2.1978 9.8469 2.5231 14.707 1.3613 4.922-1.2223 9.3662-4.4691 11.732-8.9941 3.7394-6.8849 3.1112-16.021-1.8652-22.139-3.6631-4.5322-9.5408-6.9081-15.305-6.8594zm364.81 0c-0.18592 2e-3 -0.37103 5e-3 -0.55664 0.0117-0.1869 4e-3 -0.37367 8e-3 -0.56054 0.0117-5.8741 0.18176-11.766 2.9744-15.137 7.875-3.6686 5.1993-4.3525 12.174-2.3789 18.152 1.5488 4.5881 4.9517 8.5375 9.3633 10.58 4.5289 2.1979 9.847 2.5234 14.707 1.3613 4.922-1.222 9.366-4.4692 11.732-8.9941 3.7393-6.8848 3.1115-16.021-1.8652-22.139-3.6631-4.5324-9.5408-6.9079-15.305-6.8594zm-103.59 4e-3c-0.27638-1e-3 -0.55304 3e-3 -0.82812 0.0117-4.3243 0.10652-8.7845 2.2074-10.957 6.0684-1.726 2.98-1.8429 6.7278-0.6875 9.9277 0.94687 2.5398 3.0804 4.4952 5.5762 5.4785 2.656 1.2549 5.6602 1.552 8.2734 2.9023 1.0627 0.54706 1.915 1.6385 1.75 2.8887 0.0513 1.3905-0.73695 2.8403-2.1445 3.2129-2.2929 0.71844-4.8277 0.24167-6.8691-0.9707-1.3943-0.69495-2.7097-2.089-4.4063-1.7148-1.4886 0.24417-2.0558 1.7825-2.8066 2.8809-0.56319 0.88994-1.1269 1.7795-1.6894 2.6699 3.2765 3.2494 7.8691 4.9687 12.428 5.2656 4.0622 0.22831 8.401-0.92782 11.254-3.9609 2.9967-3.1357 4.0228-7.9198 2.873-12.062-0.85585-2.8359-3.1881-5.0169-5.8887-6.1133-2.6863-1.2856-5.6855-1.7512-8.3418-3.0996-0.97973-0.51116-1.9199-1.4567-1.709-2.6582 5e-3 -1.5873 1.4582-2.7541 2.9609-2.8652 2.279-0.40605 4.5348 0.44274 6.4551 1.6152 1.0898 0.76926 2.7932 1.0143 3.7441-0.10547 0.96539-1.152 1.4737-2.612 2.2461-3.8926 0.10764-0.48086 0.98187-1.1043 0.30078-1.4395-3.1376-2.7801-7.3875-4.0176-11.533-4.0391zm-138.08 0.39062c-1.049 2e-3 -2.0961 0.0199-3.1426 0.0781-1.4171 0.13525-2.0022 1.588-2.543 2.6934-3.1939 6.3321-6.4643 12.627-9.6094 18.982-0.23395 0.48683-0.44874 0.98295-0.66797 1.4766-1.7364-3.8868-3.8042-7.6161-5.6875-11.434-1.8019-3.5105-3.5406-7.0579-5.3809-10.547-0.53406-0.93908-1.6328-1.3038-2.6641-1.2363-2.4881-0.0113-4.9767 9e-5 -7.4648-4e-3v37.838h8.5801c-9e-3 -7.5006 0.0183-15.002-0.0137-22.502 2.9499 5.6652 5.8401 11.363 8.8262 17.008 0.78402 1.3552 2.4459 1.8524 3.9297 1.707 1.6039 0.16547 3.2906-0.66111 3.9551-2.166 2.8526-5.5355 5.706-11.072 8.5586-16.607-0.0228 7.5201-3e-3 15.04-0.01 22.561h8.5781v-37.838c-1.7472 0.026-3.4959-0.0139-5.2441-0.01zm-187.11 8e-3c-2.3231 4e-3 -4.6458 0.0133-6.9688 4e-3v37.838h9.5918v-13.607c1.1552 0.0951 2.6725-0.3478 3.4688 0.75977 2.245 3.7772 4.3292 7.6537 6.5977 11.416 0.93872 1.2911 2.6511 1.5308 4.1367 1.4316h7.7676c-2.8881-4.6925-5.7217-9.4207-8.6426-14.092-0.50221-0.69646-1.1476-1.2784-1.8555-1.7598 3.4724-1.5717 6.1509-4.9043 6.625-8.7246 0.49461-3.4982-0.38773-7.4296-3.1797-9.7852-2.8964-2.501-6.8494-3.287-10.572-3.4473-2.3225-0.0348-4.6456-0.0368-6.9688-0.0332zm-60.57 4e-3v7.8223h10.35v30.016h9.5918v-30.016h10.35v-7.8223zm175.09 0v0.5293c-0.0161 8.2082 0.0333 16.417-0.0234 24.625-0.11703 1.6968-0.35499 3.7994-1.9863 4.7363-1.492 0.73864-3.2144 0.46109-4.7871 0.20312-1.1808-0.1389-2.4525 0.68007-2.4902 1.9395-0.16552 1.8125-0.32957 3.6251-0.49609 5.4375 3.609 0.84241 7.478 1.176 11.074 0.09961 3.4026-1.0204 6.1426-3.7908 7.2676-7.1426 1.1166-2.9852 1.0716-6.2118 1.0332-9.3496v-21.078zm104.43 0v37.838h9.6406v-37.838zm47.658 0c-0.0436 0.11263-0.0872 0.22526-0.13086 0.33789-4.8374 12.5-9.6786 24.999-14.514 37.5 2.6789-0.03051 5.3636 0.06001 8.0391-0.04297 1.5427-0.18415 2.661-1.5525 2.9629-3.0137 0.58732-1.7334 1.1744-3.4658 1.7617-5.1992 4.4076 0 8.8151-2e-5 13.223 0 0.7678 2.1716 1.4242 4.3879 2.2578 6.5332 0.63491 1.2967 2.1487 1.8441 3.5215 1.7227h6.9844c-4.8787-12.614-9.7634-25.225-14.645-37.838zm92.295 0v7.8223h10.35v30.016h9.5918v-30.016h10.35v-7.8223zm-356.28 7.4434h2.8906c1.9276 0.0304 4.0359 0.28564 5.2012 1.9707 1.0408 1.5903 0.93142 3.7559 0.12304 5.4219-1.0364 1.9156-3.3934 2.525-5.4277 2.4551h-2.7871zm61.002 0.25c0.0996-5.3e-4 0.19938 2e-3 0.29883 4e-3 2.9609-0.072 6.053 1.143 7.7559 3.6504 1.9809 2.8742 2.3071 6.4773 1.918 9.8926-0.25262 2.0024-0.91979 3.9752-2.125 5.5273-1.7087 2.319-4.6449 3.3925-7.457 3.3457-2.1384 8e-3 -4.2155-0.40555-5.9883-1.6758-2.8846-2.061-3.9428-5.7861-3.9688-9.1816-0.0718-2.5543 0.43892-5.3128 1.7363-7.4394 1.599-2.7427 4.742-4.1089 7.8301-4.123zm364.81 0c0.0996-5.3e-4 0.19937 2e-3 0.29883 4e-3 2.9609-0.0708 6.0528 1.1411 7.7559 3.6504 2.0204 2.9306 2.3184 6.618 1.8945 10.094-0.27707 1.9339-0.93457 3.8252-2.1016 5.3262-1.7089 2.3201-4.6448 3.3917-7.457 3.3457-2.1384 8e-3 -4.2155-0.40555-5.9883-1.6758-2.8845-2.061-3.9428-5.7861-3.9688-9.1816-0.0718-2.5543 0.43895-5.3128 1.7363-7.4394 1.599-2.7427 4.742-4.1089 7.8301-4.123zm-157.11 2.3652c0.11326-2e-3 0.21352 0.73603 0.36328 1.0293 1.3552 3.8619 2.6216 7.7547 3.9355 11.631h-8.5723c1.3526-4.0345 2.7249-8.0641 4.1055-12.088 0.063-0.41805 0.11648-0.57128 0.16797-0.57226z" fill="#fff" stroke-width="1.1685"/>
   <path d="m540.55-280.75h-16.693v-30.244h-29.066v30.244h-16.693v-71.535h16.693v29.9h29.066v-29.9h16.693z" fill="#fff" stroke-width="1.1685"/>
   <path d="m614.7-308.1-6.5791-19.59c-0.42537-1.2438-0.93288-2.7004-1.522-4.3697-0.55643-1.702-1.1129-3.535-1.6693-5.4989-0.52364 1.9966-1.0638 3.846-1.6202 5.548-0.55648 1.702-1.0802 3.175-1.5712 4.4188l-6.5789 19.492-3.8296 11.292-4.2224 12.471c-0.32708 0.91648-0.96554 1.7512-1.9148 2.504-0.94919 0.7201-2.1111 1.0802-3.4859 1.0802h-12.962l27.691-71.535h16.988l27.691 71.535h-12.863c-1.4402 0-2.6349-0.32752-3.5841-0.98195-0.91635-0.68739-1.5547-1.5548-1.9147-2.6022l-4.2224-12.471z" fill="#fff" stroke-width="1.1685"/>
   <path d="m714.23-299.26q0.5891 0 1.1782 0.24553 0.58927 0.19616 1.1293 0.73646l6.579 6.9227q-4.3206 5.6462-10.85 8.5429-6.4809 2.8477-15.367 2.8477-8.1501 0-14.631-2.7494-6.4317-2.7986-10.949-7.6592-4.4678-4.9098-6.8735-11.587-2.4058-6.7263-2.4058-14.582 0-8.0029 2.7494-14.68 2.7494-6.7263 7.6592-11.587 4.9589-4.8606 11.833-7.561 6.8735-2.7003 15.171-2.7003 4.026 0 7.561 0.73645 3.5841 0.68736 6.6773 1.9639 3.0932 1.2274 5.6952 2.9949 2.6022 1.7184 4.6152 3.8296l-5.5971 7.5119q-0.54012 0.68736-1.2764 1.2765-0.7365 0.54008-2.0621 0.54008-0.88386 0-1.6694-0.39276-0.78548-0.39276-1.6693-0.93288-0.88369-0.58914-1.9638-1.2274-1.0311-0.68735-2.5041-1.2274-1.4238-0.58914-3.3877-0.98194-1.9147-0.39276-4.517-0.39276-4.517 0-8.2483 1.6202-3.7314 1.5711-6.4317 4.5661-2.6512 2.9458-4.1733 7.1682-1.473 4.2224-1.473 9.4757 0 5.4989 1.473 9.7704 1.522 4.2715 4.075 7.2173 2.6021 2.8967 6.039 4.4188 3.4368 1.522 7.3646 1.522 2.2585 0 4.1241-0.1966 1.8658-0.24553 3.4369-0.78552 1.6202-0.54008 3.044-1.3747 1.473-0.88374 2.9458-2.1603 0.58914-0.49097 1.2766-0.78556 0.68731-0.34383 1.4238-0.34383z" fill="#fff" stroke-width="1.1685"/>
   <path d="m769.47-323.32h2.6513q3.6823 0 5.3025-2.3076l16.104-23.37q1.3256-1.9148 2.995-2.6021 1.7184-0.68735 4.1732-0.68735h14.435l-21.21 28.918q-1.1291 1.5711-2.3565 2.6022-1.2274 1.031-2.5041 1.7184 1.8657 0.68735 3.3877 1.9148 1.5712 1.1783 2.8476 3.1913l21.603 33.19h-14.827q-1.4238 0-2.4549-0.1966-0.98203-0.1966-1.7184-0.58919-0.7365-0.39276-1.2766-0.93283-0.54008-0.58919-1.031-1.3256l-16.202-24.892q-0.88382-1.3747-2.2585-1.9148-1.3256-0.58918-3.6333-0.58918h-4.0259v30.44h-16.595v-71.535h16.595z" fill="#fff" stroke-width="1.1685"/>
   <path d="m891.24-352.28v12.765h-29.36v16.693h22.487v12.274h-22.487v17.037h29.36v12.765h-46.053v-71.535z" fill="#fff" stroke-width="1.1685"/>
   <path d="m939.46-307.21v26.463h-16.595v-71.535h23.272q7.7574 0 13.207 1.6202 5.4989 1.5711 8.9357 4.4188 3.4859 2.8477 5.057 6.7263 1.5711 3.8787 1.5711 8.4447 0 3.4859-0.93284 6.579-0.93283 3.0931-2.7986 5.7444-1.8166 2.6021-4.5169 4.6642-2.6513 2.0621-6.1372 3.3877 1.6693 0.83467 3.0932 2.0621 1.4729 1.2274 2.5531 2.9949l15.22 24.892h-15.024q-4.1733 0-5.9899-3.1422l-11.882-20.768q-0.78556-1.3747-1.8657-1.9639-1.031-0.58918-2.9458-0.58918zm0-11.44h6.6772q3.3877 0 5.7444-0.83466 2.4058-0.88374 3.9278-2.4058t2.2094-3.535q0.68735-2.062 0.68735-4.4187 0-4.7133-3.0931-7.3646-3.044-2.6513-9.4758-2.6513h-6.6772z" fill="#fff" stroke-width="1.1685"/>
   <g transform="matrix(4.4081 0 0 4.4081 -844.39 -107.71)" fill="#fff" stroke-width=".26508">
    <path d="m311.85-29.301q-0.22039 0.35263-0.47017 0.52894-0.23509 0.17632-0.6171 0.17632-0.33794 0-0.73465-0.2057-0.38202-0.2204-0.88158-0.48487-0.48487-0.26447-1.1167-0.47017-0.6318-0.22039-1.4399-0.22039-1.3958 0-2.0864 0.60241-0.67588 0.58772-0.67588 1.6015 0 0.64649 0.41141 1.0726 0.4114 0.4261 1.0726 0.73465 0.67587 0.30856 1.5281 0.57302 0.86688 0.24978 1.7632 0.57303 0.89627 0.30855 1.7485 0.73465 0.86689 0.4261 1.5281 1.0873 0.67587 0.66118 1.0873 1.6162 0.4114 0.94035 0.4114 2.2774 0 1.484-0.51426 2.777-0.51425 1.293-1.4987 2.2627-0.96974 0.95504-2.4096 1.5134-1.4252 0.54364-3.2471 0.54364-0.99912 0-2.0423-0.2057-1.0285-0.2057-1.9982-0.57303-0.96973-0.38202-1.8219-0.89627-0.85219-0.51425-1.484-1.1461l1.4693-2.3215q0.16162-0.26447 0.45548-0.42609 0.29386-0.16163 0.6318-0.16163 0.44078 0 0.88157 0.27917 0.45548 0.27917 1.0138 0.61711 0.57303 0.33794 1.3077 0.6171 0.73465 0.27917 1.7338 0.27917 1.3518 0 2.1011-0.58772 0.74934-0.60241 0.74934-1.8954 0-0.74934-0.4114-1.2195-0.4114-0.47017-1.0873-0.77872-0.66118-0.30855-1.5134-0.54364-0.85219-0.23509-1.7485-0.51425-0.89627-0.29386-1.7485-0.70526-0.85219-0.4261-1.5281-1.102-0.66118-0.69057-1.0726-1.7044-0.4114-1.0285-0.4114-2.5272 0-1.2048 0.48487-2.3509 0.48486-1.146 1.4252-2.0423 0.94035-0.89627 2.3068-1.4252 1.3664-0.54364 3.1296-0.54364 0.98443 0 1.9101 0.16162 0.94035 0.14693 1.7778 0.45548 0.8375 0.29386 1.5575 0.71996 0.73465 0.4114 1.3077 0.94035z"/>
    <path d="m327.46-19.398v7.1555h-4.9662v-21.408h7.5522q2.2627 0 3.8789 0.54364 1.6309 0.52894 2.6741 1.4693 1.0579 0.94035 1.5574 2.2186 0.49957 1.2783 0.49957 2.7623 0 1.6015-0.51426 2.9386-0.51425 1.3371-1.5721 2.2921t-2.6888 1.4987q-1.6162 0.52894-3.8349 0.52894zm0-3.7467h2.586q1.9395 0 2.7917-0.92566 0.85219-0.92565 0.85219-2.586 0-0.73465-0.22039-1.3371-0.2204-0.60241-0.67588-1.0285-0.44079-0.44079-1.1314-0.67587-0.67587-0.23509-1.6162-0.23509h-2.586z"/>
   </g>
   <path d="m729.01-197.75-8.6788-25.842c-0.56133-1.6408-1.2306-3.5622-2.0078-5.7643-0.73404-2.2453-1.4681-4.6633-2.2021-7.254-0.69084 2.6339-1.4033 5.0734-2.1373 7.3187-0.73404 2.2453-1.4249 4.1883-2.0726 5.8291l-8.6788 25.713-5.0519 14.897-5.57 16.451c-0.43199 1.209-1.2738 2.31-2.526 3.3032-1.2522 0.94994-2.785 1.4249-4.5985 1.4249h-17.099l36.529-94.366h22.41l36.529 94.366h-16.969c-1.8998 0-3.4759-0.43155-4.728-1.2954-1.209-0.90674-2.051-2.051-2.526-3.4327l-5.57-16.451z" fill="#f00" stroke-width="1.1685"/>
   <path d="m865.07-186.1q0.77719 0 1.5544 0.324 0.77718 0.25919 1.4897 0.97154l8.6788 9.1322q-5.6996 7.4483-14.314 11.27-8.5493 3.7565-20.272 3.7565-10.751 0-19.301-3.627-8.4845-3.6917-14.443-10.104-5.8939-6.4768-9.0674-15.285-3.1736-8.8732-3.1736-19.236 0-10.557 3.627-19.366 3.627-8.8732 10.104-15.285 6.5415-6.412 15.609-9.9742 9.0674-3.5622 20.013-3.5622 5.3109 0 9.9742 0.9715 4.7281 0.90674 8.8084 2.5907 4.0804 1.6192 7.513 3.9508 3.4327 2.2668 6.0882 5.0518l-7.3835 9.9094q-0.71247 0.90678-1.684 1.684-0.9715 0.71244-2.7202 0.71244-1.1658 0-2.2021-0.51813-1.0363-0.51813-2.2021-1.2306-1.1658-0.77719-2.5907-1.6192-1.3601-0.90674-3.3032-1.6192-1.8783-0.77723-4.469-1.2954-2.526-0.51817-5.9586-0.51817-5.9587 0-10.881 2.1374-4.9223 2.0725-8.4845 6.0234-3.4975 3.886-5.5052 9.456-1.943 5.57-1.943 12.5 0 7.254 1.943 12.889 2.0078 5.6348 5.3757 9.5208 3.4327 3.8213 7.9664 5.8291 4.5338 2.0078 9.7151 2.0078 2.9793 0 5.4405-0.2592 2.4612-0.32399 4.5338-1.0362 2.1373-0.71243 4.0156-1.8135 1.943-1.1658 3.886-2.8498 0.77724-0.64764 1.684-1.0362 0.90674-0.45337 1.8783-0.45337z" fill="#fff" stroke-width="1.1685"/>
   <path d="m977.64-256.05v16.84h-38.731v22.021h29.664v16.192h-29.664v22.474h38.731v16.84h-60.752v-94.366z" fill="#fff" stroke-width="1.1685"/>
  </g>
 </g>
</svg>
