<svg width="650.7mm" height="78.724mm" version="1.1" viewBox="0 0 650.7 78.724" xmlns="http://www.w3.org/2000/svg">
 <g transform="translate(28.26 -40.013)">
  <g transform="translate(1285.7 342.68)" stroke-width=".26458">
   <text x="-922.41534" y="-224.14612" fill="#000000" font-family="Lato" font-size="25.643px" font-weight="900" letter-spacing="10.583px" word-spacing="0px" style="line-height:1.25" xml:space="preserve"><tspan x="-922.41534" y="-224.14612" fill="#000000" font-family="Lato" font-weight="900" stroke-width=".26458">TRÓJMIASTO</tspan></text>
   <g aria-label="HACKER:SPACE">
    <path d="m-1271.5-253.54h-11.34v-20.545h-19.744v20.545h-11.34v-48.594h11.34v20.311h19.744v-20.311h11.34z"/>
    <path d="m-1221.1-272.11-4.4692-13.307c-0.2891-0.84492-0.6337-1.8344-1.0339-2.9683-0.378-1.1562-0.756-2.4013-1.134-3.7354-0.3557 1.3563-0.7226 2.6126-1.1006 3.7688-0.378 1.1562-0.7338 2.1568-1.0673 3.0017l-4.4691 13.241-2.6015 7.671-2.8683 8.4714c-0.2223 0.62257-0.6559 1.1896-1.3007 1.701-0.6448 0.48916-1.4341 0.73374-2.368 0.73374h-8.8049l18.81-48.594h11.54l18.81 48.594h-8.7382c-0.9783 0-1.7899-0.22235-2.4347-0.66704-0.6225-0.46693-1.0561-1.0561-1.3007-1.7676l-2.8683-8.4714z"/>
    <path d="m-1153.5-266.11q0.4002 0 0.8004 0.16676 0.4003 0.13341 0.7671 0.50028l4.4692 4.7026q-2.935 3.8355-7.3708 5.8032-4.4025 1.9344-10.439 1.9344-5.5364 0-9.9389-1.8677-4.3691-1.9011-7.4375-5.2029-3.035-3.3352-4.6692-7.8711-1.6343-4.5692-1.6343-9.9056 0-5.4364 1.8677-9.9722 1.8677-4.5692 5.2029-7.8711 3.3686-3.3018 8.0379-5.1362 4.6692-1.8344 10.306-1.8344 2.7349 0 5.1362 0.50028 2.4347 0.46692 4.5359 1.3341 2.1012 0.8338 3.8688 2.0345 1.7677 1.1673 3.1351 2.6014l-3.8021 5.1029q-0.3669 0.46693-0.8671 0.86715-0.5003 0.36687-1.4008 0.36687-0.6004 0-1.134-0.26681-0.5336-0.26682-1.134-0.63369-0.6003-0.40022-1.334-0.8338-0.7004-0.46693-1.701-0.8338-0.9672-0.40022-2.3013-0.66704-1.3007-0.26682-3.0684-0.26682-3.0684 0-5.6031 1.1006-2.5348 1.0673-4.3691 3.1017-1.801 2.0011-2.8349 4.8694-1.0006 2.8683-1.0006 6.4369 0 3.7354 1.0006 6.637 1.0339 2.9016 2.7682 4.9028 1.7676 1.9678 4.1023 3.0017 2.3346 1.0339 5.0028 1.0339 1.5342 0 2.8015-0.13341 1.2674-0.16676 2.3347-0.53363 1.1006-0.36687 2.0678-0.93386 1.0006-0.60033 2.0011-1.4675 0.4002-0.33352 0.8672-0.53363 0.4669-0.23346 0.9672-0.23346z"/>
    <path d="m-1116-282.45h1.801q2.5014 0 3.602-1.5676l10.939-15.876q0.9005-1.3007 2.0345-1.7676 1.1673-0.46693 2.8349-0.46693h9.8055l-14.408 19.644q-0.767 1.0673-1.6008 1.7676t-1.701 1.1673q1.2674 0.46693 2.3013 1.3007 1.0673 0.80045 1.9344 2.1679l14.675 22.546h-10.072q-0.9672 0-1.6676-0.1334-0.6671-0.13341-1.1673-0.40023-0.5003-0.26681-0.8672-0.63369-0.3669-0.40022-0.7004-0.9005l-11.006-16.909q-0.6004-0.93385-1.5342-1.3007-0.9005-0.40023-2.4681-0.40023h-2.7348v20.678h-11.273v-48.594h11.273z"/>
    <path d="m-1033.3-302.13v8.6715h-19.944v11.34h15.275v8.338h-15.275v11.573h19.944v8.6715h-31.284v-48.594z"/>
    <path d="m-1000.5-271.51v17.977h-11.273v-48.594h15.809q5.2696 0 8.9717 1.1006 3.7354 1.0673 6.0701 3.0017 2.368 1.9344 3.4353 4.5692t1.0673 5.7365q0 2.368-0.63368 4.4692-0.63369 2.1012-1.9011 3.9022-1.234 1.7677-3.0684 3.1684-1.801 1.4008-4.169 2.3013 1.134 0.56699 2.1012 1.4008 1.0006 0.8338 1.7343 2.0345l10.339 16.909h-10.206q-2.8349 0-4.069-2.1345l-8.0712-14.108q-0.53364-0.93386-1.2674-1.3341-0.70039-0.40023-2.0011-0.40023zm0-7.771h4.5359q2.3013 0 3.9022-0.56699 1.6342-0.60033 2.6682-1.6342 1.0339-1.0339 1.5008-2.4014 0.46693-1.4008 0.46693-3.0017 0-3.2018-2.1012-5.0028-2.0678-1.801-6.4369-1.801h-4.5359z"/>
    <path d="m-953.01-258.77q0-1.2007 0.43358-2.2346 0.46693-1.0339 1.234-1.801 0.80045-0.7671 1.8677-1.2007 1.0673-0.46693 2.3346-0.46693 1.234 0 2.3013 0.46693 1.0673 0.43357 1.8677 1.2007 0.80044 0.76709 1.234 1.801 0.46693 1.0339 0.46693 2.2346t-0.46693 2.2679q-0.43358 1.0339-1.234 1.801-0.80045 0.7671-1.8677 1.2007-1.0673 0.43357-2.3013 0.43357-1.2674 0-2.3346-0.43357-1.0673-0.43358-1.8677-1.2007-0.76709-0.76709-1.234-1.801-0.43358-1.0673-0.43358-2.2679zm0-22.779q0-1.2007 0.43358-2.2346 0.46693-1.0339 1.234-1.801 0.80045-0.7671 1.8677-1.2007 1.0673-0.46693 2.3346-0.46693 1.234 0 2.3013 0.46693 1.0673 0.43357 1.8677 1.2007 0.80044 0.7671 1.234 1.801 0.46693 1.0339 0.46693 2.2346t-0.46693 2.2679q-0.43358 1.0339-1.234 1.801-0.80045 0.76709-1.8677 1.2007-1.0673 0.43357-2.3013 0.43357-1.2674 0-2.3346-0.43357-1.0673-0.43358-1.8677-1.2007-0.76709-0.7671-1.234-1.801-0.43358-1.0673-0.43358-2.2679z" fill="#f00"/>
    <path d="m-891.77-292.26q-0.50028 0.80045-1.0673 1.2007-0.53363 0.40023-1.4008 0.40023-0.7671 0-1.6676-0.46693-0.86715-0.50028-2.0011-1.1006-1.1006-0.60033-2.5348-1.0673-1.4341-0.50028-3.2685-0.50028-3.1684 0-4.736 1.3674-1.5342 1.3341-1.5342 3.6354 0 1.4675 0.93386 2.4347 0.93386 0.96721 2.4347 1.6676 1.5342 0.7004 3.4686 1.3007 1.9678 0.56699 4.0022 1.3007 2.0345 0.70039 3.9689 1.6676 1.9678 0.96721 3.4686 2.468 1.5342 1.5008 2.468 3.6687 0.93385 2.1345 0.93385 5.1696 0 3.3686-1.1673 6.3035-1.1673 2.935-3.4019 5.1362-2.2012 2.1679-5.4697 3.4352-3.2351 1.234-7.3708 1.234-2.2679 0-4.6359-0.46693-2.3346-0.46693-4.5359-1.3007-2.2012-0.86715-4.1356-2.0345t-3.3686-2.6015l3.3352-5.2696q0.36687-0.60033 1.0339-0.9672 0.66704-0.36688 1.4341-0.36688 1.0006 0 2.0011 0.63369 1.0339 0.63369 2.3013 1.4008 1.3007 0.76709 2.9683 1.4008t3.9355 0.63369q3.0684 0 4.7693-1.3341 1.701-1.3674 1.701-4.3024 0-1.701-0.93386-2.7682-0.93385-1.0673-2.468-1.7676-1.5008-0.70039-3.4352-1.234-1.9344-0.53363-3.9689-1.1673-2.0345-0.66704-3.9689-1.6009-1.9344-0.96721-3.4686-2.5014-1.5008-1.5676-2.4347-3.8688-0.93386-2.3346-0.93386-5.7366 0-2.7349 1.1006-5.3363 1.1006-2.6014 3.2351-4.6359 2.1345-2.0345 5.2363-3.2351 3.1017-1.234 7.104-1.234 2.2346 0 4.3358 0.36687 2.1345 0.33352 4.0356 1.0339 1.9011 0.66704 3.5353 1.6342 1.6676 0.93385 2.9683 2.1345z"/>
    <path d="m-856.35-269.78v16.242h-11.273v-48.594h17.143q5.1362 0 8.8049 1.234 3.7021 1.2007 6.0701 3.3352 2.4013 2.1345 3.5353 5.0362 1.134 2.9016 1.134 6.2702 0 3.6354-1.1673 6.6704t-3.5687 5.2029q-2.4013 2.1679-6.1034 3.4019-3.6687 1.2007-8.7049 1.2007zm0-8.5048h5.87q4.4025 0 6.3369-2.1012 1.9344-2.1012 1.9344-5.87 0-1.6676-0.50028-3.035t-1.5342-2.3346q-1.0006-1.0006-2.5681-1.5342-1.5342-0.53364-3.6687-0.53364h-5.87z"/>
    <path d="m-788.37-272.11-4.4692-13.307c-0.28905-0.84492-0.63369-1.8344-1.0339-2.9683-0.37799-1.1562-0.75598-2.4013-1.134-3.7354-0.35575 1.3563-0.72263 2.6126-1.1006 3.7688-0.37799 1.1562-0.73374 2.1568-1.0673 3.0017l-4.4692 13.241-2.6015 7.671-2.8683 8.4714c-0.22235 0.62257-0.65592 1.1896-1.3007 1.701-0.6448 0.48916-1.4341 0.73374-2.368 0.73374h-8.8049l18.811-48.594h11.54l18.811 48.594h-8.7382c-0.97833 0-1.7899-0.22235-2.4347-0.66704-0.62257-0.46693-1.0561-1.0561-1.3007-1.7676l-2.8683-8.4714z"/>
    <path d="m-720.76-266.11q0.40023 0 0.80045 0.16676 0.40023 0.13341 0.7671 0.50028l4.4692 4.7026q-2.935 3.8355-7.3708 5.8032-4.4025 1.9344-10.439 1.9344-5.5364 0-9.9389-1.8677-4.3691-1.9011-7.4375-5.2029-3.035-3.3352-4.6693-7.8711-1.6342-4.5692-1.6342-9.9056 0-5.4364 1.8677-9.9722 1.8677-4.5692 5.2029-7.8711 3.3686-3.3018 8.0378-5.1362t10.306-1.8344q2.7349 0 5.1362 0.50028 2.4347 0.46692 4.5359 1.3341 2.1012 0.8338 3.8688 2.0345 1.7677 1.1673 3.1351 2.6014l-3.8021 5.1029q-0.36687 0.46693-0.86715 0.86715-0.50028 0.36687-1.4008 0.36687-0.60034 0-1.134-0.26681-0.53363-0.26682-1.134-0.63369-0.60033-0.40022-1.3341-0.8338-0.70039-0.46693-1.701-0.8338-0.96721-0.40022-2.3013-0.66704-1.3007-0.26682-3.0684-0.26682-3.0684 0-5.6031 1.1006-2.5348 1.0673-4.3691 3.1017-1.801 2.0011-2.8349 4.8694-1.0006 2.8683-1.0006 6.4369 0 3.7354 1.0006 6.637 1.0339 2.9016 2.7682 4.9028 1.7676 1.9678 4.1023 3.0017 2.3346 1.0339 5.0028 1.0339 1.5342 0 2.8016-0.13341 1.2674-0.16676 2.3346-0.53363 1.1006-0.36687 2.0678-0.93386 1.0006-0.60033 2.0011-1.4675 0.40023-0.33352 0.86716-0.53363 0.46692-0.23346 0.9672-0.23346z"/>
    <path d="m-663.22-302.13v8.6715h-19.944v11.34h15.275v8.338h-15.275v11.573h19.944v8.6715h-31.284v-48.594z"/>
   </g>
  </g>
 </g>
</svg>
