<svg width="330" height="79" viewBox="0 0 330 79" fill="none" xmlns="http://www.w3.org/2000/svg">
<rect x="56.0194" y="18.5063" width="28.702" height="29.2927" rx="3" transform="rotate(45 56.0194 18.5063)" fill="white"/>
<path fill-rule="evenodd" clip-rule="evenodd" d="M72.7253 36.3626L41.8964 5.53374C40.3683 4.00564 37.8907 4.00564 36.3626 5.53374L5.53378 36.3626C4.00568 37.8907 4.00568 40.3682 5.53378 41.8963L36.3626 72.7252C37.8907 74.2533 40.3683 74.2533 41.8964 72.7252L72.7253 41.8964C74.2534 40.3683 74.2534 37.8907 72.7253 36.3626ZM43.2798 4.15031C40.9877 1.85816 37.2714 1.85815 34.9792 4.1503L4.15034 34.9792C1.85819 37.2713 1.85819 40.9876 4.15034 43.2798L34.9792 74.1087C37.2714 76.4008 40.9877 76.4008 43.2798 74.1087L74.1087 43.2798C76.4008 40.9876 76.4008 37.2713 74.1087 34.9792L43.2798 4.15031Z" fill="white"/>
<path fill-rule="evenodd" clip-rule="evenodd" d="M103.218 39.1295L72.3895 8.30061L41.5607 39.1295L72.3895 69.9583L103.218 39.1295ZM76.5398 4.15031C74.2477 1.85816 70.5314 1.85815 68.2392 4.1503L37.4104 34.9792C35.1182 37.2713 35.1182 40.9876 37.4104 43.2798L68.2392 74.1087C70.5314 76.4008 74.2477 76.4008 76.5398 74.1087L107.369 43.2798C109.661 40.9876 109.661 37.2713 107.369 34.9792L76.5398 4.15031Z" fill="white"/>
<path d="M128.307 20.3851H133.218V10.5437H133.27L137.214 20.3851H139.696L143.64 10.5437H143.692V20.3851H148.603V2.39819H142.883L138.494 13.3702H138.442L134.028 2.39819H128.307V20.3851Z" fill="white"/>
<path d="M156.115 20.3851H161.418L167.713 2.39819H162.672L158.806 14.4494H158.754L154.861 2.39819H149.82L156.115 20.3851Z" fill="white"/>
<path d="M168.943 20.3851H173.959V15.1946H176.832C180.985 15.1946 183.467 12.9334 183.467 8.8221C183.467 4.7108 180.985 2.39819 176.832 2.39819H168.943V20.3851ZM173.959 10.8007V6.79215H176.388C177.772 6.79215 178.451 7.43454 178.451 8.74501C178.451 10.1069 177.589 10.8007 176.31 10.8007H173.959Z" fill="white"/>
<path d="M128.743 75.5451H141.819V48.9076H141.958L152.46 75.5451H159.067L169.569 48.9076H169.708V75.5451H182.783V26.8604H167.552L155.868 56.558H155.728L143.975 26.8604H128.743V75.5451Z" fill="white"/>
<path d="M188.04 65.1822C188.04 72.3458 192.769 76.5883 200.767 76.5883C204.94 76.5883 208.487 74.9191 209.809 72.3458H209.948V75.5451H221.076V51.7591C221.076 43.0654 214.468 37.2233 204.662 37.2233C196.177 37.2233 189.152 42.8568 188.04 50.3681L199.307 52.6633C199.933 48.9772 201.602 47.2384 204.662 47.2384C207.374 47.2384 208.765 48.073 208.765 49.6726C208.765 51.4114 206.818 52.3851 200.35 53.9847C191.934 56.0017 188.04 59.5487 188.04 65.1822ZM208.905 62.5393C208.905 64.6953 206.192 66.6427 203.41 66.6427C201.324 66.6427 200.28 65.9472 200.28 64.4867C200.28 63.0262 201.393 62.1916 204.732 61.1483C207.514 60.2442 208.418 59.6878 208.765 58.7836H208.905V62.5393Z" fill="white"/>
<path d="M251.3 48.9772V38.6838H242.468V28.9469H229.462V38.6838H222.716V48.9772H229.462V61.9829C229.462 70.9548 234.052 75.5451 243.859 75.5451H249.909V63.7216H245.736C243.441 63.7216 242.468 62.748 242.468 60.5224V48.9772H251.3Z" fill="white"/>
<path d="M253.039 57.1144C253.039 68.7292 261.176 77.0056 272.026 77.0056C276.755 77.0056 280.719 75.6842 283.849 73.0413C287.048 70.3288 288.996 66.7818 289.761 62.2611L277.729 60.0355C277.103 63.4434 275.086 65.3213 272.095 65.3213C268.27 65.3213 266.044 62.3307 266.044 57.1144C266.044 51.8982 268.27 48.9076 272.095 48.9076C275.086 48.9076 277.103 50.7854 277.729 54.1934L289.761 51.9678C288.996 47.4471 287.048 43.9 283.849 41.2572C280.719 38.5447 276.755 37.2233 272.026 37.2233C261.176 37.2233 253.039 45.4997 253.039 57.1144Z" fill="white"/>
<path d="M293.765 75.5451H306.77V54.1934C306.77 51.1332 308.787 49.1163 312.056 49.1163C315.047 49.1163 316.994 51.0636 316.994 54.1934V75.5451H330V51.2723C330 47.1689 328.748 43.9 326.314 41.3963C323.88 38.8925 320.611 37.6406 316.577 37.6406C312.474 37.6406 308.857 39.1707 306.91 41.8831H306.77V24.7739H293.765V75.5451Z" fill="white"/>
</svg>
